<svg xmlns="http://www.w3.org/2000/svg" viewBox="0 0 500 400">
  <!-- Background circle -->
  <circle cx="125" cy="250" r="55" fill="#3a3a3a"/>
  
  <!-- Letter B design inside circle -->
  <path d="M95 220 L95 280 L115 280 L115 255 L125 255 C135 255 140 250 140 245 C140 240 135 235 125 235 L115 235 L115 220 L95 220 Z M115 240 L125 240 C130 240 132 242 132 245 C132 248 130 250 125 250 L115 250 L115 240 Z" fill="white"/>
  <path d="M115 255 L125 255 C135 255 140 260 140 265 C140 270 135 275 125 275 L115 275 L115 255 Z M115 260 L125 260 C130 260 132 262 132 265 C132 268 130 270 125 270 L115 270 L115 260 Z" fill="white"/>
  
  <!-- BROSE text -->
  <text x="195" y="245" font-family="Arial, sans-serif" font-size="48" font-weight="bold" fill="#3a3a3a">BROSE</text>
  
  <!-- FILMS PRODUCTION text -->
  <text x="220" y="275" font-family="Arial, sans-serif" font-size="14" font-weight="normal" fill="#3a3a3a" letter-spacing="2px">FILMS PRODUCTION</text>
</svg>
