<svg width="24" height="24" viewBox="0 0 24 24" fill="none" xmlns="http://www.w3.org/2000/svg">
<path d="M19.321 5.562a5.124 5.124 0 0 1-.443-.258 6.228 6.228 0 0 1-1.137-.966c-.849-.849-1.317-1.958-1.317-3.123C16.424.496 15.928 0 15.309 0h-3.068c-.619 0-1.115.496-1.115 1.115v11.615c0 1.728-1.405 3.133-3.133 3.133s-3.133-1.405-3.133-3.133 1.405-3.133 3.133-3.133c.619 0 1.115-.496 1.115-1.115V5.414c0-.619-.496-1.115-1.115-1.115C3.729 4.299 0 8.028 0 12.73s3.729 8.431 8.431 8.431 8.431-3.729 8.431-8.431V8.847c1.137.849 2.544 1.317 4.069 1.317.619 0 1.115-.496 1.115-1.115V5.981c0-.619-.496-1.115-1.115-1.115-.372 0-.729-.062-1.069-.161-.341-.099-.663-.243-.954-.443z" fill="#FFD700"/>
</svg>
